<svg id="Group_4990" data-name="Group 4990" xmlns="http://www.w3.org/2000/svg" xmlns:xlink="http://www.w3.org/1999/xlink" width="351.998" height="231.967" viewBox="0 0 351.998 231.967">
  <defs>
    <clipPath id="clip-path">
      <rect id="Rectangle_2419" data-name="Rectangle 2419" width="351.998" height="231.967" fill="none"/>
    </clipPath>
  </defs>
  <g id="Group_4989" data-name="Group 4989" clip-path="url(#clip-path)">
    <path id="Path_2764" data-name="Path 2764" d="M208.159,140.049l78.19,7.623a5.061,5.061,0,0,1,4.546,5.528l-15.23,156.211a5.061,5.061,0,0,1-5.528,4.546l-78.19-7.623a5.061,5.061,0,0,1-4.546-5.528l15.23-156.211a5.061,5.061,0,0,1,5.528-4.546" transform="translate(-111.218 -83.112)" fill="#2a2829"/>
    <path id="Path_2765" data-name="Path 2765" d="M215.084,149.354l75.851,7.4a2.9,2.9,0,0,1,2.6,3.163L279.291,306.02l-81.615-7.957,14.245-146.108a2.9,2.9,0,0,1,3.163-2.6" transform="translate(-117.331 -88.641)" fill="#fff"/>
    <path id="Path_2766" data-name="Path 2766" d="M235.27,184.079l61.7,6.016a3.961,3.961,0,0,1,3.558,4.327l-8.464,86.81a3.961,3.961,0,0,1-4.327,3.558l-61.7-6.016a3.961,3.961,0,0,1-3.558-4.327l8.464-86.81a3.961,3.961,0,0,1,4.327-3.558" transform="translate(-132.042 -109.249)" fill="#f7e6f1"/>
    <path id="Path_2767" data-name="Path 2767" d="M247.868,164.461l12.776,1.246a.949.949,0,0,1,.853,1.037l-.006.061a.95.95,0,0,1-1.037.853l-12.776-1.246a.95.95,0,0,1-.853-1.037l.006-.061a.95.95,0,0,1,1.037-.853" transform="translate(-146.5 -97.614)" fill="#f7e6f1"/>
    <path id="Path_2768" data-name="Path 2768" d="M317.574,171.227l39.062,3.808a.95.95,0,0,1,.853,1.037l-.006.062a.95.95,0,0,1-1.037.853l-39.062-3.808a.95.95,0,0,1-.853-1.037l.006-.061a.95.95,0,0,1,1.037-.853" transform="translate(-187.874 -101.63)" fill="#f7e6f1"/>
    <path id="Path_2769" data-name="Path 2769" d="M255.666,345.477l44.086,4.278a.95.95,0,0,1,.853,1.036l-.075.773a.949.949,0,0,1-1.036.853l-44.086-4.278a.949.949,0,0,1-.853-1.036l.075-.773a.949.949,0,0,1,1.036-.853" transform="translate(-151.088 -205.056)" fill="#af006e"/>
    <path id="Path_2770" data-name="Path 2770" d="M262.02,360.064l38.622,3.748a.95.95,0,0,1,.853,1.037l-.075.773a.949.949,0,0,1-1.036.854l-38.622-3.748a.949.949,0,0,1-.853-1.036l.075-.773a.949.949,0,0,1,1.036-.853" transform="translate(-154.86 -213.714)" fill="#af006e"/>
    <rect id="Rectangle_2418" data-name="Rectangle 2418" width="17.744" height="20.371" transform="matrix(0.097, -0.995, 0.995, 0.097, 88.508, 203.548)" fill="#f7e6f1"/>
    <path id="Path_2771" data-name="Path 2771" d="M323.288,503.424l-40.344-3.934a.95.95,0,0,1-.853-1.037l.006-.061a.95.95,0,0,1,1.037-.853l40.344,3.934a.95.95,0,0,1,.853,1.037l-.006.061a.95.95,0,0,1-1.037.853" transform="translate(-167.433 -295.312)" fill="#f7e6f1"/>
    <path id="Path_2772" data-name="Path 2772" d="M324.425,491.7l-40.344-3.934a.95.95,0,0,1-.853-1.037l.006-.061a.95.95,0,0,1,1.037-.853l40.344,3.934a.95.95,0,0,1,.853,1.037l-.006.061a.95.95,0,0,1-1.037.853" transform="translate(-168.107 -288.354)" fill="#f7e6f1"/>
    <path id="Path_2773" data-name="Path 2773" d="M325.443,481.22,285.1,477.286a.95.95,0,0,1-.853-1.037l.006-.061a.95.95,0,0,1,1.037-.853l40.344,3.934a.95.95,0,0,1,.853,1.037l-.006.061a.949.949,0,0,1-1.037.853" transform="translate(-168.712 -282.133)" fill="#f7e6f1"/>
    <path id="Path_2774" data-name="Path 2774" d="M326.459,470.739l-40.344-3.934a.95.95,0,0,1-.853-1.037l.006-.061a.95.95,0,0,1,1.037-.853l40.344,3.934a.95.95,0,0,1,.853,1.037l-.006.061a.949.949,0,0,1-1.037.853" transform="translate(-169.315 -275.912)" fill="#f7e6f1"/>
    <path id="Path_2775" data-name="Path 2775" d="M289.035,448.342l-67.209-6.522a.949.949,0,0,1-.853-1.036l.006-.062a.95.95,0,0,1,1.037-.853l67.209,6.522a.949.949,0,0,1,.853,1.036l-.006.062a.949.949,0,0,1-1.036.853" transform="translate(-131.156 -261.082)" fill="#f7e6f1"/>
    <path id="Path_2776" data-name="Path 2776" d="M290.033,437.814l-67.222-6.554a.95.95,0,0,1-.853-1.037l.006-.062a.95.95,0,0,1,1.037-.853l67.222,6.554a.95.95,0,0,1,.853,1.037l-.006.061a.95.95,0,0,1-1.037.853" transform="translate(-131.74 -254.814)" fill="#f7e6f1"/>
    <path id="Path_2777" data-name="Path 2777" d="M292.117,259.9l21.436-11.089.241-2.5a3.022,3.022,0,0,0-2.687-3.324l-.055-.006-32.318-3.117a3.025,3.025,0,0,0-3.324,2.694c0,.017,0,.034-.005.051l-.258,2.679Z" transform="translate(-163.313 -142.364)" fill="#af006e"/>
    <path id="Path_2778" data-name="Path 2778" d="M288.319,277.03l-16.975-14.615-1.671,17.322a3.024,3.024,0,0,0,2.69,3.324l.055.005,32.323,3.12a3.027,3.027,0,0,0,3.325-2.7c0-.016,0-.032,0-.048l1.688-17.5Z" transform="translate(-160.055 -155.757)" fill="#af006e"/>
    <path id="Path_2779" data-name="Path 2779" d="M289.9,538.424a2.027,2.027,0,1,1-2.027,2.027,2.027,2.027,0,0,1,2.027-2.027" transform="translate(-170.87 -319.583)" fill="#f0eff0"/>
    <path id="Path_2780" data-name="Path 2780" d="M488.994,508.353c-3.293,1.335-5.26,3.741-7.453,6.527a19.116,19.116,0,0,0-2.689,3.823,3.86,3.86,0,0,0-.452,2.049c.118,1.052.16,1.025,1,1.333a16.788,16.788,0,0,0,4.577.321c1.479.024,2.928.166,4.421.177l9.552.07c2.67.019,8.817,1.334,10.929-.624-1.281-1.569-3.287-1.62-4.362-3.5-.907-1.589-.9-3.457-1.962-4.891a19.852,19.852,0,0,0-4.942-4.357c-1.907-1.266-6.048-3.128-8.325-1.931" transform="translate(-283.945 -300.909)" fill="#2c001c"/>
    <path id="Path_2781" data-name="Path 2781" d="M412.786,501.342c-1.168,1.6-2.5,3.685-3.525,5.381-.749,1.237-2.8,4.367-2.743,5.933.126,3.554,7.739,3.519,9.864,4.05a85.314,85.314,0,0,0,10.511,1.874c1.672.2,3.325.276,5.022.378,2.165.13,5.544,1.643,4.393-2.48-1.133-4.06-5.419-7.343-7.845-10.346-.752-.93-1.834-2.745-2.871-3.325-1.1-.613-2.753-.343-3.933-.349-3.091-.015-6.147.111-9.164-.767" transform="translate(-241.289 -297.572)" fill="#2c001c"/>
    <path id="Path_2782" data-name="Path 2782" d="M458.263,335.548a10.15,10.15,0,0,1,.263,3.041,46.94,46.94,0,0,0-6.755,24.067c-1.177,10.953-12.178,16.353-20.988,21.769-5.513,4.344-9.234,11.02-12.3,18.261l18.163,3.618c5.555-6.132,14.89-11.861,21.508-17.293,7.721-6.52,14.454-20.515,13.815-24.137-.1-1.308-2.49,3.976,0,0,.588,3.415,4.957,5.639,3.836,8.92-3.957,11.584-14.089,16.67-22.5,25.955a18.944,18.944,0,0,0-4.279,7.9c6.585-1.048,14.491-2.152,18.827,4.458l2.192.016c7.746-9.808,16.579-18.513,24.325-28.322,1.112-2.184,2.233-5.464,3.345-7.649,3.369-10.937,3.466-24.091-4.15-31.82-8.713-7.738-22.9-16.612-35.15-9.354" transform="translate(-248.391 -197.226)" fill="#fdda5f"/>
    <path id="Path_2783" data-name="Path 2783" d="M334.31,525.09c5.982.352,11.227,1.258,17.2,1.225,4.595-.025,9.227-.3,13.815-.333,6.67-.051,13.335-.133,20.01-.147,5.833-.012,12.8-.2,18.576.819,3.679.65,9.51,1.319,9.237,4.475-.229,2.648-5.21,4.943-8.631,5.865-9.441,2.545-22.472-2.681-31.714-4.387-3.864-.713-7.523-1.57-11.5-1.97-4.071-.408-63.188-7.956-67.257-8.317-4.014-.356-7.672-.559-11.381-1.118-3.088-.465-3.861-2.388,11.279-1.626,8.8.443,37.762,5.381,39.446,5.415Z" transform="translate(-166.7 -308.291)" fill="#432fb2"/>
    <path id="Path_2784" data-name="Path 2784" d="M570.11,546.6a136.235,136.235,0,0,0,16.826-.288c7.926-.5,15.964-.281,23.891-.814,2.191-.147,9.6-.749,11.029,1.43,1.136,1.733-2.185,5.415-3.474,6.5-2.658,2.245-4.374,2.353-8.05,2.119-4.261-.271-8.578-.673-12.806-1.167a137.354,137.354,0,0,1-17.819-3.558c-3.748-.963-8.29-2.173-11.371-4.184" transform="translate(-337.338 -323.671)" fill="#432fb2"/>
    <path id="Path_2785" data-name="Path 2785" d="M724.922,435.505c.111-27.32.233-71.2-.135-71.426-.534-.325-1.168.253-1.168.253l-.194,71.162Z" transform="translate(-429.39 -216.041)" fill="#2c001c"/>
    <path id="Path_2786" data-name="Path 2786" d="M723.761,389.085h0a.951.951,0,0,0,1-.9l-.2-23.77a1.009,1.009,0,0,0-2.006.01l.2,23.77a.957.957,0,0,0,1.01.891" transform="translate(-428.872 -215.77)" fill="#2c001c"/>
    <path id="Path_2787" data-name="Path 2787" d="M561.173,199.636c-2.239-.047-4.974.7-7.209.468-1.289-.131-5.063-1.339-5.87-.047-.382.613-.024,2.615.291,3.23.63,1.225,1.917,1.614.146,2.312-2.136.841-4.938-.109-7.184.315-2.269.428-4.328,2.419-6.57,3.254-2.954,1.1-5.81,2.322-8.641,3.7s-5.376,2.524-6.518,5.708a11.9,11.9,0,0,0-.152,7.333c.892,3.15,2.352,7.347,6.4,6.333a13.944,13.944,0,0,0,3.8-1.333c1.267-.787,2.429-2.216,3.934-2.492.08.782-5.585,5.3-6.128,6.824-.7,1.973-2.9,6.694-3.8,8.742-.813,1.843-5.3,5.1-7.09,6.13-3.617,2.09-3.076,7.282-3,11.219,2.363-2.079,4.892-5.226,8.381-3.974,3.451,1.238,6.91,4.046,9.677,6.371,2.133,1.792,3.869,3.952,5.973,5.8,1.794,1.573,3.585,1.607,5.977,1.844,3,.3,10.43,1.324,11.911,4.767,4.027,1.575,5.067-13.329,5.91-14.061,4.1-3.563.844-9.606,5-13,1.1.893.872,4.774.908,6.009a12.141,12.141,0,0,0,.721,4.421c.446,1.205-.105,2.32.253,3.472.492,1.581,2.267,1.951,3.057,3.337.383.672.4,1.7.893,2.284.743.881,1.966.541,2.923.926,1.81.728,2.468,2.176,4.5,2.405,3.716.42,8.19,2.5,11.865,1.918.123-1.226-.359-2.525-.239-3.788a15.726,15.726,0,0,1,1.392-4.212c1.267-3.167-2.276-2.656-4.322-3.619a6.834,6.834,0,0,1-3.385-4.649c-.444-2.092.091-3.565.039-5.785-.061-2.615-.32-5.27-.6-7.856-.382-3.561-.033-7.293-.6-10.8a22.787,22.787,0,0,0-.76-3.639c-.456-1.332-1.075-1.72-.9-3.1.16-1.277.532-2.062.059-3.45-.564-1.655-1.373-2.2-1.03-4.092.282-1.553.893-2.609-.016-4.016A20.594,20.594,0,0,0,578.1,211.3c-5.181-4.9-9.5-8.827-15.873-11.785" transform="translate(-304.795 -118.393)" fill="#7a004d"/>
    <path id="Path_2788" data-name="Path 2788" d="M643.172,179.564a13.584,13.584,0,0,0-3.292,9.6,19.08,19.08,0,0,0,3.46,10.318c2.768,3.636,7.259.3,9.812-1.85,3.864-3.258,6.945-7.053,7.173-12.408.314-7.371-13.436-9.144-18.225-5.849" transform="translate(-379.8 -105.526)" fill="#fdd6c3"/>
    <path id="Path_2789" data-name="Path 2789" d="M633.124,169.788c.491,4.27,1.652,2.928,3.315,4.507,2.789-2.248,1.018-7.108,4.134-7.315,2.733-.182,6.461,2.545,8.812,3.792,1.7.9,5.955,2.995,7.825,2.866,4.527-3.909,2.834-12.848.864-15.138-3.369-3.918-9.969-5.495-14.742-3.921-6.117,2.017-10.315,8.579-10,15.143" transform="translate(-375.792 -91.393)" fill="#432fb2"/>
    <path id="Path_2790" data-name="Path 2790" d="M637.087,166.616a6.8,6.8,0,0,0-1.8,2.794c-.374,1.03.134,1.973.489,2.936a18.032,18.032,0,0,0,1.9,3.022,8.463,8.463,0,0,0,1.065,1.392,9.559,9.559,0,0,1,1.3,1.423c.239.441.112,1.146.259,1.663a12.452,12.452,0,0,0,.641,1.73,6.487,6.487,0,0,0,1.565,2.254,12.345,12.345,0,0,0,1.46.984,1.957,1.957,0,0,0,1.375.482c1.095-.053,2.276-.271,3.371-.381.345-.035.514.114.605.512a3,3,0,0,0,2.619,2.637,5.107,5.107,0,0,0,4.2-2.506c.673-1.12,1.689-2.429,2.334-3.656a.471.471,0,0,0-.351-.677c-.627-.093-1.5-.134-1.829-.2-.538-.1-1.069-.245-1.6-.38a19.242,19.242,0,0,1-2.692-.894c-2.112-.881-5.79-1.749-7.965-3.856-.7-.673-1.991-1.179-2.793-.383a13.4,13.4,0,0,1-2.792-2.794,4.987,4.987,0,0,1-1.2-1.961,8.586,8.586,0,0,1-.158-4.144" transform="translate(-376.997 -98.895)" fill="#2c001c"/>
    <path id="Path_2791" data-name="Path 2791" d="M629.208,199.392c.785.078,1.5-.112,2.3-.039,1.006.092,2.107.54,1.548,1.291-1.18,1.586.23,5.545.83,7.182.5,1.374,1.923,5.184,4.744,5.409,1.653.132,4.054-.979,5.537-2.136,1.938,1.55-1.756,4.225-2.782,5.163a16.966,16.966,0,0,1-2.237,2.205c-.984.577-2.3.282-3.34.713-1.3.537-2.563,1.012-3.936.057a3.634,3.634,0,0,1-1.08-1.664c-.51-1.247-.958-2.553-1.433-3.818a24.208,24.208,0,0,0-1.627-4.154,8.8,8.8,0,0,1-1.346-3c-.385-2.092.468-6.229,2.747-7.208" transform="translate(-371.74 -118.317)" fill="#fcca1b"/>
    <path id="Path_2792" data-name="Path 2792" d="M544.281,231.756c1.06-1.142.572-2.559.333-3.9a7.36,7.36,0,0,1,.351-4.245,15.049,15.049,0,0,1,3.218-3.791c1.35-1.38,2.723-1.547,4.573-1.611a6.646,6.646,0,0,1,6.649,5.779c.5,3.7-2.1,6.9-4.751,9.082a13.6,13.6,0,0,1-2.778,1.45c-.733.363-1.94,1.37-2.789,1.1-.357-.115-.647-.648-.922-.882a10.71,10.71,0,0,0-1.592-1.006c-.883-.517-1.574-1.475-2.466-1.883" transform="translate(-322.956 -129.514)" fill="#2c001c"/>
    <path id="Path_2793" data-name="Path 2793" d="M702.97,359.225c.449-2.441,2.393-3.162,4.707-2.8a11.206,11.206,0,0,1,1.621.311,16.6,16.6,0,0,1,1.553.885c.994.427,2.1.131,3.119.582a5.586,5.586,0,0,1,2.611,1.908,9.329,9.329,0,0,1,.749,3.993c.154,2.107.671,5.282-1.636,6.4-2.4,1.166-6.168.245-6.379-2.706a16.88,16.88,0,0,0-1.984.407,7.964,7.964,0,0,1-2.872.111c-1.159-.313-1.58-1.705-2.308-2.593-1.629-1.988.017-4.225.469-6.329" transform="translate(-416.346 -211.503)" fill="#2c001c"/>
    <path id="Path_2794" data-name="Path 2794" d="M316.028,315.605l95.426-67.871s.986.153.981.879-95.287,68.162-95.287,68.162-2.968,1.282-1.12-1.17" transform="translate(-187.219 -147.043)" fill="#2c001c"/>
    <path id="Path_2795" data-name="Path 2795" d="M326.985,401.179c1.5,1.571,1.936,3.642.966,4.626s-2.974.508-4.477-1.063-1.936-3.642-.966-4.626,2.974-.508,4.477,1.063" transform="translate(-191.118 -237.185)" fill="#2c001c"/>
    <path id="Path_2796" data-name="Path 2796" d="M488.024,264.641l1.128,1.647a.1.1,0,0,0,.144.026l25.962-18.848a.109.109,0,0,0,.025-.149l-1.128-1.647a.1.1,0,0,0-.144-.026l-25.962,18.848a.109.109,0,0,0-.025.149" transform="translate(-289.656 -145.791)" fill="#2c001c"/>
    <path id="Path_2797" data-name="Path 2797" d="M495.562,99.143h2.1a.325.325,0,1,0,0-.65h-2.345l.173-.174,1.485-1.484a.325.325,0,0,0-.46-.46L495.03,97.86l-.174.174V95.689a.325.325,0,1,0-.65,0v2.345l-.173-.174-1.485-1.485a.325.325,0,1,0-.46.46l1.484,1.484.174.174H491.4a.325.325,0,0,0,0,.65h2.345l-.174.174-1.484,1.484a.325.325,0,0,0,0,.46.324.324,0,0,0,.46,0l1.485-1.484.173-.174v2.345a.325.325,0,1,0,.65,0V99.6l.174.174,1.484,1.484a.325.325,0,1,0,.46-.46l-1.485-1.484-.173-.174Z" transform="translate(-291.48 -56.603)" fill="#432fb2"/>
    <path id="Path_2798" data-name="Path 2798" d="M579.537,142.872h2.1a.325.325,0,1,0,0-.65h-2.345l.174-.174,1.485-1.484a.325.325,0,0,0-.46-.46l-1.484,1.485-.174.174v-2.345a.325.325,0,1,0-.65,0v2.345l-.173-.174-1.485-1.485a.325.325,0,1,0-.46.46l1.484,1.484.174.174h-2.345a.325.325,0,1,0,0,.65h2.345l-.174.174-1.484,1.484a.325.325,0,0,0,0,.46.324.324,0,0,0,.46,0l1.485-1.484.173-.174v2.345a.325.325,0,0,0,.65,0v-2.345l.174.174,1.484,1.484a.325.325,0,1,0,.46-.46l-1.485-1.484-.174-.174Z" transform="translate(-341.323 -82.558)" fill="#432fb2"/>
    <path id="Path_2799" data-name="Path 2799" d="M676.912,81.61h2.1a.325.325,0,1,0,0-.65h-2.345l.173-.174,1.485-1.484a.325.325,0,0,0-.46-.46l-1.484,1.485-.174.174V78.156a.325.325,0,1,0-.65,0V80.5l-.173-.174L673.9,78.842a.325.325,0,1,0-.46.46l1.484,1.484.173.174h-2.345a.325.325,0,0,0,0,.65H675.1l-.173.174-1.484,1.484a.325.325,0,0,0,0,.46.324.324,0,0,0,.46,0l1.485-1.484.173-.174v2.345a.325.325,0,1,0,.65,0V82.07l.174.174,1.484,1.484a.325.325,0,1,0,.46-.46l-1.485-1.484-.173-.174Z" transform="translate(-399.12 -46.196)" fill="#432fb2"/>
    <path id="Path_2800" data-name="Path 2800" d="M653.112,453.053h2.1a.325.325,0,1,0,0-.65h-2.345l.174-.174,1.485-1.484a.325.325,0,0,0-.46-.46l-1.484,1.485-.174.174V449.6a.325.325,0,1,0-.65,0v2.345l-.173-.174-1.485-1.485a.325.325,0,1,0-.46.46l1.484,1.484.174.174h-2.345a.325.325,0,0,0,0,.65H651.3l-.174.174-1.484,1.484a.325.325,0,1,0,.46.46l1.485-1.484.173-.174v2.345a.325.325,0,1,0,.65,0v-2.345l.174.174,1.484,1.484a.325.325,0,1,0,.46-.46l-1.485-1.484-.174-.174Z" transform="translate(-384.994 -266.667)" fill="#432fb2"/>
    <path id="Path_2801" data-name="Path 2801" d="M757.392,224.427h2.1a.325.325,0,1,0,0-.65h-2.345l.174-.174,1.485-1.484a.325.325,0,0,0-.46-.46l-1.484,1.485-.174.174v-2.345a.325.325,0,1,0-.65,0v2.345l-.173-.174-1.485-1.485a.325.325,0,1,0-.46.46L755.4,223.6l.174.174h-2.345a.325.325,0,1,0,0,.65h2.345l-.174.174-1.484,1.484a.325.325,0,0,0,0,.46.324.324,0,0,0,.46,0l1.485-1.484.173-.174v2.345a.325.325,0,1,0,.65,0v-2.345l.174.174,1.484,1.484a.325.325,0,0,0,.46-.46L757.32,224.6l-.174-.174Z" transform="translate(-446.889 -130.965)" fill="#432fb2"/>
    <path id="Path_2802" data-name="Path 2802" d="M543.138,20.916l-2.81-1.623-.657-.379.741-.165,2.537-.563a.471.471,0,0,0-.1-.931.458.458,0,0,0-.1.011l-4.169.925-.112.025-.1-.057-2.554-1.475-.5-.291.532-.235,3.124-1.377a.471.471,0,0,0,0-.862l-3.081-1.358-.532-.235.5-.291,2.456-1.418.1-.057.112.025,4.253.944a.466.466,0,0,0,.1.011.474.474,0,0,0,.459-.369.471.471,0,0,0-.358-.562l-2.621-.582-.741-.164.657-.379,2.865-1.654a.471.471,0,0,0,.173-.644.472.472,0,0,0-.644-.173l-2.811,1.623-.657.379.228-.723.781-2.479a.471.471,0,0,0-.9-.283L538.026,9.6l-.035.11-.1.057-2.521,1.455-.5.291.063-.578.366-3.367a.471.471,0,0,0-.747-.431L531.8,9.151l-.469.343V5.869l.077-.085L534.3,2.636a.471.471,0,0,0-.347-.79A.467.467,0,0,0,533.6,2l-1.756,1.916-.513.559v-4a.471.471,0,1,0-.943,0V4.538l-.513-.559L528.064,2a.471.471,0,0,0-.666-.029.472.472,0,0,0-.029.666l2.944,3.211.078.085v3.53l-.47-.343-2.7-1.979a.472.472,0,0,0-.747.431l.369,3.394.063.578-.5-.291L523.832,9.77l-.1-.057L523.7,9.6,522.415,5.53a.471.471,0,0,0-.9.283l.781,2.479.228.723-.657-.379-2.811-1.623a.471.471,0,0,0-.644.173.472.472,0,0,0,.173.644l2.865,1.654.657.379-.74.164-2.621.582a.471.471,0,0,0-.358.562.474.474,0,0,0,.459.369.467.467,0,0,0,.1-.011l4.253-.944.112-.025.1.057,2.475,1.429.5.291-.532.235-3.056,1.347a.471.471,0,0,0,0,.862l3.1,1.366.532.235-.5.291-2.573,1.486-.1.057-.112-.025-4.169-.925a.466.466,0,0,0-.1-.012.474.474,0,0,0-.459.369.471.471,0,0,0,.358.562l2.537.563.741.165-.657.379-2.81,1.623a.472.472,0,0,0-.173.644.471.471,0,0,0,.644.172l2.865-1.654.657-.38-.228.723-.807,2.561a.471.471,0,1,0,.9.283l1.309-4.155.035-.109.1-.058,2.507-1.447.5-.291-.063.578-.364,3.347a.471.471,0,0,0,.468.522.467.467,0,0,0,.279-.091l2.7-1.979.47-.343v3.573l-.078.085-2.944,3.212a.471.471,0,0,0,.347.789.466.466,0,0,0,.348-.153l1.814-1.979.513-.559v4.067a.471.471,0,0,0,.943,0v-4l.513.559,1.756,1.915a.465.465,0,0,0,.348.153.471.471,0,0,0,.347-.789l-2.886-3.148-.077-.085V19.208l.469.343,2.747,2.011a.467.467,0,0,0,.278.091.471.471,0,0,0,.469-.522l-.361-3.32-.062-.578.5.291,2.461,1.421.1.058.035.109,1.309,4.155a.471.471,0,1,0,.9-.283l-.807-2.561-.228-.723.657.38,2.865,1.654a.471.471,0,1,0,.471-.816m-15.826-5.177-2.535-1.118-.612-.27.612-.27,2.492-1.1.137-.06.13.075,1.941,1.121.443.255-.443.256-1.9,1.1-.13.075Zm3.079-.039v2.372l-.121.088-2.206,1.615-.54.4.072-.665.3-2.735.016-.149.13-.075,1.909-1.1.443-.256Zm0-4.92v2.777l-.443-.256-1.9-1.1-.13-.075-.016-.149L527.6,9.2l-.072-.665.54.4,2.206,1.615.121.089Zm.943,2.266V10.663l.121-.089,2.25-1.647.54-.4-.072.665-.3,2.755-.016.149-.13.075L531.776,13.3l-.442.256Zm2.37,6.73-2.25-1.647-.121-.088V15.189l.442.256,1.955,1.129.13.075.016.149.294,2.708.072.665Zm.727-4.025-.137.061-.13-.075-1.917-1.107-.443-.256.443-.255,1.96-1.132.13-.075.137.06,2.517,1.11.613.27-.613.27Z" transform="translate(-307.668 0.001)" fill="#432fb2"/>
    <path id="Path_2803" data-name="Path 2803" d="M829.255,170.314l-2.811-1.623-.657-.379.741-.165,2.537-.563a.471.471,0,0,0,.358-.562.474.474,0,0,0-.46-.369.462.462,0,0,0-.1.011l-4.169.925-.112.025-.1-.057-2.554-1.475-.5-.291.532-.235,3.124-1.377a.471.471,0,0,0,0-.862L822,161.96l-.532-.235.5-.291,2.456-1.418.1-.057.112.025,4.253.944a.467.467,0,0,0,.1.011.474.474,0,0,0,.459-.369.47.47,0,0,0-.358-.562l-2.621-.582-.74-.164.657-.379,2.865-1.654a.471.471,0,0,0,.173-.644.471.471,0,0,0-.644-.172l-2.811,1.623-.657.379.228-.723.781-2.479a.471.471,0,0,0-.9-.283L824.143,159l-.034.11-.1.057-2.521,1.456-.5.291.063-.578.366-3.367a.471.471,0,0,0-.747-.431l-2.747,2.011-.47.343v-3.626l.078-.085,2.886-3.148a.471.471,0,0,0-.347-.79.467.467,0,0,0-.347.153l-1.756,1.916-.513.559v-4a.471.471,0,1,0-.942,0v4.067l-.513-.559-1.814-1.979a.471.471,0,0,0-.666-.029.472.472,0,0,0-.029.666l2.944,3.211.078.085v3.53l-.469-.343-2.7-1.979a.471.471,0,0,0-.747.431l.369,3.394.063.578-.5-.291-2.568-1.482-.1-.057-.035-.11-1.284-4.073a.471.471,0,0,0-.9.283l.781,2.479.228.723-.657-.379-2.811-1.623a.471.471,0,0,0-.644.173.472.472,0,0,0,.173.644l2.866,1.654.657.379-.741.164-2.621.582a.471.471,0,0,0-.358.562.474.474,0,0,0,.459.369.467.467,0,0,0,.1-.011l4.253-.944.112-.025.1.057,2.475,1.429.5.291-.532.235-3.056,1.347a.471.471,0,0,0,0,.862l3.1,1.366.532.235-.5.291-2.573,1.486-.1.057-.112-.025-4.169-.925a.467.467,0,0,0-.1-.012.474.474,0,0,0-.459.369.471.471,0,0,0,.358.562l2.537.563.741.165-.657.379-2.81,1.623a.472.472,0,0,0-.173.644.474.474,0,0,0,.409.236.469.469,0,0,0,.235-.063l2.866-1.654.657-.38-.228.723-.807,2.561a.471.471,0,1,0,.9.283l1.309-4.155.035-.109.1-.058,2.507-1.447.5-.291-.063.578-.364,3.347a.471.471,0,0,0,.747.431l2.7-1.979.469-.343v3.573l-.078.085-2.944,3.212a.471.471,0,0,0,.347.789.465.465,0,0,0,.347-.153L816,174.166l.513-.559v4.067a.471.471,0,0,0,.942,0v-4l.513.559,1.756,1.915a.465.465,0,0,0,.347.153.471.471,0,0,0,.347-.789l-2.886-3.148-.078-.085v-3.669l.47.343,2.747,2.011a.467.467,0,0,0,.278.091.471.471,0,0,0,.469-.522l-.361-3.32-.063-.578.5.291,2.461,1.421.1.058.035.109,1.309,4.155a.471.471,0,1,0,.9-.283l-.807-2.561-.228-.723.657.38,2.866,1.654a.469.469,0,0,0,.235.063.474.474,0,0,0,.409-.236.471.471,0,0,0-.172-.644m-15.826-5.177-2.535-1.118-.612-.27.612-.27,2.492-1.1.137-.06.13.075,1.941,1.121.443.255-.443.256-1.9,1.1-.13.075Zm3.079-.039v2.372l-.121.088-2.206,1.615-.54.4.072-.665.3-2.735.016-.149.13-.075,1.909-1.1.443-.256Zm0-4.92v2.777l-.443-.256-1.9-1.1-.13-.075-.016-.149-.3-2.782-.072-.665.54.4,2.206,1.615.121.089Zm.942,2.266v-2.383l.121-.089,2.25-1.647.54-.4-.072.665-.3,2.755-.016.149-.129.075-1.951,1.126-.443.256Zm2.371,6.73-2.25-1.647-.121-.088v-2.851l.443.256,1.956,1.129.13.075.016.149.294,2.708.072.665Zm.727-4.025-.137.061-.13-.075-1.917-1.107-.443-.256.443-.255,1.96-1.132.13-.075.137.06,2.517,1.11.613.27-.613.27Z" transform="translate(-477.493 -88.675)" fill="#432fb2"/>
    <path id="Path_2804" data-name="Path 2804" d="M394.025,63.213l-1.525-.88-.356-.206.4-.089,1.377-.306a.253.253,0,0,0,.16-.112.256.256,0,0,0-.215-.393.263.263,0,0,0-.056.006l-2.262.5-.061.013-.054-.031-1.386-.8-.273-.158.289-.127,1.695-.747a.256.256,0,0,0,0-.468l-1.672-.737-.289-.127.273-.158,1.332-.769.054-.031.061.013,2.307.512a.263.263,0,0,0,.056.006.255.255,0,0,0,.215-.393.252.252,0,0,0-.16-.112l-1.422-.315-.4-.089.356-.206,1.555-.9a.255.255,0,0,0-.128-.477.257.257,0,0,0-.128.034l-1.525.88-.356.206.124-.393.424-1.345a.256.256,0,0,0-.167-.321.263.263,0,0,0-.077-.012.255.255,0,0,0-.244.179l-.7,2.21-.019.059-.054.031-1.368.79-.274.158.034-.314.2-1.827a.256.256,0,0,0-.405-.234l-1.49,1.091-.254.186V55.049l.042-.046,1.566-1.708a.255.255,0,0,0-.188-.428.252.252,0,0,0-.189.083l-.953,1.039-.278.3V52.12a.256.256,0,1,0-.511,0v2.207l-.278-.3-.984-1.073a.256.256,0,0,0-.361-.016.256.256,0,0,0-.016.361l1.6,1.742.042.046V57l-.255-.187-1.466-1.073a.252.252,0,0,0-.151-.05.256.256,0,0,0-.254.283l.2,1.842.034.314-.273-.158-1.393-.8-.054-.031-.019-.059-.7-2.21a.255.255,0,0,0-.244-.179.261.261,0,0,0-.077.012.256.256,0,0,0-.167.321l.424,1.345.124.393-.356-.206-1.525-.88a.256.256,0,1,0-.256.443l1.555.9.356.206-.4.089-1.422.315a.256.256,0,0,0-.194.3.255.255,0,0,0,.3.194l2.308-.512.061-.013.054.031,1.343.775.273.158-.289.127-1.658.731a.256.256,0,0,0,0,.468l1.681.741.289.128-.273.158-1.4.806-.054.031-.061-.013-2.262-.5a.261.261,0,0,0-.056-.006.256.256,0,0,0-.215.393.254.254,0,0,0,.16.112l1.376.306.4.089-.356.206-1.525.88a.256.256,0,0,0,.256.443l1.555-.9.356-.206-.124.393-.438,1.389a.256.256,0,0,0,.167.321.248.248,0,0,0,.077.012.254.254,0,0,0,.244-.179l.71-2.255.019-.059.054-.031,1.361-.786.273-.158-.034.314-.2,1.816a.256.256,0,0,0,.405.234l1.466-1.074.255-.186v1.939l-.042.046-1.6,1.742a.256.256,0,0,0,.189.428.252.252,0,0,0,.189-.083l.984-1.074.278-.3v2.207a.256.256,0,1,0,.511,0V65.034l.278.3.953,1.039a.252.252,0,0,0,.189.083.255.255,0,0,0,.188-.428l-1.566-1.708-.042-.046V62.286l.254.187,1.49,1.091a.256.256,0,0,0,.405-.234l-.2-1.8-.034-.314.273.158,1.335.771.054.031.019.059.711,2.255a.254.254,0,0,0,.244.179.251.251,0,0,0,.077-.012.256.256,0,0,0,.167-.321l-.438-1.389-.124-.393.356.206,1.555.9a.256.256,0,1,0,.256-.443M385.439,60.4l-1.376-.606-.332-.146.332-.147,1.353-.6.074-.033.07.041,1.053.608.24.139-.24.139-1.03.595-.07.041Zm1.671-.021V61.67l-.065.048-1.2.876-.293.215.039-.361.161-1.484.009-.081.07-.041,1.036-.6.24-.139Zm0-2.67V59.22l-.24-.139-1.033-.6-.07-.041-.009-.08-.164-1.509-.039-.361.293.215,1.2.876.065.048Zm.511,1.229V57.65l.065-.048,1.221-.894.293-.215-.039.361L389,58.349l-.009.08-.07.041-1.058.611-.24.139Zm1.286,3.651-1.221-.893-.065-.048V60.106l.24.139,1.061.612.07.041.009.081.16,1.469.039.361Zm.395-2.184-.074.033-.07-.041-1.04-.6-.24-.139.24-.139,1.064-.614.07-.041.074.033,1.366.6.332.147-.332.146Z" transform="translate(-225.892 -30.784)" fill="#432fb2"/>
    <path id="Path_2805" data-name="Path 2805" d="M514.825,182.623l-1.524-.88-.357-.206.4-.089,1.376-.306a.251.251,0,0,0,.16-.112.255.255,0,0,0,.034-.193.258.258,0,0,0-.25-.2.267.267,0,0,0-.056.006l-2.262.5-.061.013-.054-.031-1.386-.8-.273-.158.289-.127,1.695-.747a.256.256,0,0,0,0-.468l-1.672-.737-.289-.127.273-.158,1.332-.769.054-.031.061.013,2.307.512a.266.266,0,0,0,.056.006.255.255,0,0,0,.215-.393.251.251,0,0,0-.16-.112l-1.422-.315-.4-.089.356-.206,1.554-.9a.255.255,0,0,0-.128-.477.257.257,0,0,0-.127.034l-1.525.88-.356.206.123-.393.424-1.345a.256.256,0,0,0-.167-.321.26.26,0,0,0-.076-.012.256.256,0,0,0-.244.179l-.7,2.21-.019.059-.053.031-1.368.79-.274.158.034-.314.2-1.827a.255.255,0,0,0-.254-.283.253.253,0,0,0-.151.05l-1.49,1.091-.254.186v-1.967l.041-.046,1.566-1.708a.256.256,0,1,0-.377-.345L508.7,173.4l-.278.3V171.53a.256.256,0,1,0-.511,0v2.207l-.278-.3-.984-1.073a.256.256,0,0,0-.377.345l1.6,1.742.042.046v1.915l-.255-.187-1.467-1.073a.255.255,0,0,0-.4.234l.2,1.842.034.314-.273-.158-1.393-.8-.054-.031-.019-.059-.7-2.21a.255.255,0,0,0-.244-.179.262.262,0,0,0-.077.012.256.256,0,0,0-.167.321l.424,1.345.124.393-.357-.206-1.525-.88a.256.256,0,1,0-.256.443l1.555.9.356.206-.4.089-1.422.315a.256.256,0,0,0-.194.3.255.255,0,0,0,.3.194l2.308-.512.061-.013.054.031,1.343.775.273.158-.289.127-1.658.731a.256.256,0,0,0,0,.468l1.681.741.289.128-.273.158-1.4.806-.054.031-.061-.013-2.262-.5a.261.261,0,0,0-.056-.006.256.256,0,0,0-.215.393.254.254,0,0,0,.161.112l1.376.306.4.089-.356.206-1.525.88a.256.256,0,0,0,.256.443l1.555-.9.357-.206-.124.393-.438,1.389a.256.256,0,0,0,.167.321.248.248,0,0,0,.077.012.254.254,0,0,0,.244-.179l.711-2.255.019-.059.054-.031,1.36-.786.273-.158-.034.314-.2,1.816a.256.256,0,0,0,.4.234l1.467-1.074.255-.186v1.939l-.042.046-1.6,1.742a.256.256,0,0,0,.377.345l.984-1.074.278-.3v2.207a.256.256,0,1,0,.511,0v-2.172l.278.3.953,1.039a.254.254,0,0,0,.189.083.255.255,0,0,0,.188-.428l-1.566-1.708-.041-.046V181.7l.254.187,1.49,1.091a.256.256,0,0,0,.405-.234l-.2-1.8-.034-.314.273.158,1.335.771.054.031.019.059.71,2.255a.255.255,0,0,0,.244.179.248.248,0,0,0,.076-.012.256.256,0,0,0,.167-.321l-.438-1.389-.124-.393.357.206,1.555.9a.256.256,0,0,0,.349-.094.256.256,0,0,0-.094-.35m-8.586-2.809-1.375-.606-.332-.146.332-.147,1.352-.6.074-.033.071.041,1.053.608.24.139-.24.139-1.03.595-.07.041Zm1.671-.021v1.287l-.065.048-1.2.876-.293.215.039-.361.162-1.484.009-.081.07-.041,1.036-.6.24-.139Zm0-2.67v1.506l-.24-.139-1.033-.6-.071-.041-.009-.08-.164-1.509-.039-.361.293.215,1.2.876.065.048Zm.511,1.229V177.06l.065-.048,1.221-.894L510,175.9l-.04.361-.162,1.495-.009.08-.071.041-1.058.611-.24.139ZM509.707,182l-1.221-.893-.065-.048v-1.547l.24.139,1.061.612.07.041.009.081.16,1.469.04.361Zm.395-2.184-.075.033-.07-.041-1.04-.6-.24-.139.24-.139,1.064-.614.071-.041.074.033,1.366.6.332.147-.332.146Z" transform="translate(-297.594 -101.66)" fill="#432fb2"/>
    <path id="Path_2806" data-name="Path 2806" d="M743.878,101.549l-1.525-.88-.356-.206.4-.089,1.377-.306a.252.252,0,0,0,.16-.112.255.255,0,0,0-.215-.393.263.263,0,0,0-.056.006l-2.262.5-.061.013-.054-.031-1.385-.8-.274-.158.289-.127,1.695-.747a.256.256,0,0,0,0-.468l-1.672-.737-.289-.128.273-.158,1.332-.769.054-.031.061.013,2.307.512a.262.262,0,0,0,.056.006.256.256,0,0,0,.215-.393.253.253,0,0,0-.16-.112l-1.422-.316-.4-.089.356-.206,1.555-.9a.256.256,0,0,0-.256-.443l-1.525.88-.357.206.124-.393.424-1.345a.256.256,0,0,0-.167-.321.263.263,0,0,0-.077-.012.255.255,0,0,0-.244.179l-.7,2.21-.019.059-.054.031-1.368.79-.274.158.034-.314.2-1.827a.255.255,0,0,0-.254-.283.253.253,0,0,0-.151.05l-1.49,1.091-.254.186V93.385l.042-.046,1.566-1.708a.255.255,0,0,0-.188-.428.252.252,0,0,0-.189.083l-.953,1.039-.278.3V90.456a.256.256,0,1,0-.511,0v2.207l-.278-.3-.984-1.073a.252.252,0,0,0-.188-.083.256.256,0,0,0-.189.428l1.6,1.742.042.046v1.915l-.255-.187-1.466-1.073a.252.252,0,0,0-.151-.05.255.255,0,0,0-.254.283l.2,1.842.034.314-.273-.158-1.393-.8-.054-.031-.019-.059-.7-2.21a.255.255,0,0,0-.244-.179.261.261,0,0,0-.077.012.256.256,0,0,0-.167.321l.424,1.345.124.393-.356-.206-1.525-.88a.256.256,0,1,0-.256.443l1.555.9.356.206-.4.089-1.422.316a.256.256,0,0,0-.194.3.255.255,0,0,0,.3.194l2.308-.512.061-.013.054.031,1.343.775.273.158-.289.127-1.658.731a.256.256,0,0,0,0,.468l1.682.741.289.128-.274.158-1.4.806-.054.031-.061-.013-2.262-.5a.255.255,0,0,0-.3.194.255.255,0,0,0,.194.3l1.376.306.4.089-.356.206-1.525.88a.256.256,0,0,0,.256.443l1.555-.9.356-.206-.123.393-.438,1.389a.256.256,0,0,0,.167.321.249.249,0,0,0,.077.012.254.254,0,0,0,.244-.179l.71-2.255.019-.059.054-.031,1.361-.786.273-.158-.034.314-.2,1.816a.256.256,0,0,0,.405.234l1.466-1.074.255-.186v1.939l-.042.046-1.6,1.742a.256.256,0,0,0,.189.428.252.252,0,0,0,.188-.083l.984-1.074.278-.3v2.207a.256.256,0,1,0,.511,0V103.37l.278.3.953,1.039a.252.252,0,0,0,.189.083.256.256,0,0,0,.188-.428l-1.566-1.708-.042-.046v-1.991l.254.187,1.49,1.091a.256.256,0,0,0,.405-.234l-.2-1.8-.034-.314.273.158,1.335.771.054.031.019.059.711,2.255a.256.256,0,1,0,.488-.154l-.438-1.389-.124-.393.356.206,1.555.9A.256.256,0,0,0,744,101.7a.255.255,0,0,0-.12-.155m-8.586-2.809-1.376-.606-.332-.146.332-.147,1.353-.6.074-.033.07.041,1.054.608.24.139-.24.139-1.03.595-.07.041Zm1.671-.021v1.287l-.065.048-1.2.876-.293.215.039-.361.161-1.484.008-.081.07-.041,1.036-.6.24-.139Zm0-2.67v1.506l-.24-.139-1.033-.6-.07-.041-.009-.08-.164-1.51-.039-.361.293.215,1.2.876.065.048Zm.511,1.229V95.986l.065-.048,1.221-.894.293-.215-.039.361-.162,1.495-.009.08-.07.041-1.058.611-.24.139Zm1.286,3.651-1.221-.893-.065-.048V98.442l.24.139,1.061.612.07.041.008.081.16,1.469.039.361Zm.395-2.184-.074.033-.07-.041-1.04-.6-.24-.139.24-.139,1.064-.614.07-.041.074.033,1.366.6.332.147-.332.146Z" transform="translate(-433.548 -53.538)" fill="#432fb2"/>
    <path id="Path_2807" data-name="Path 2807" d="M99.373,513.6h-2.1a.325.325,0,1,1,0-.65h2.345l-.174-.174-1.485-1.484a.325.325,0,0,1,.46-.46l1.484,1.485.174.174v-2.345a.325.325,0,1,1,.65,0v2.345l.173-.174,1.485-1.485a.325.325,0,1,1,.46.46l-1.484,1.484-.174.174h2.345a.325.325,0,1,1,0,.65h-2.345l.174.174,1.484,1.484a.325.325,0,0,1-.23.555.322.322,0,0,1-.23-.1l-1.485-1.484-.173-.174V516.4a.325.325,0,0,1-.65,0v-2.345l-.174.174-1.484,1.484a.325.325,0,0,1-.46-.46l1.485-1.484.174-.174Z" transform="translate(-57.544 -302.603)" fill="#432fb2"/>
    <path id="Path_2808" data-name="Path 2808" d="M.84,459.771a.468.468,0,0,0,.047.358.471.471,0,0,0,.644.172L4.4,458.647l.657-.379-.228.723-.807,2.561a.471.471,0,0,0,.9.283l1.309-4.156.035-.109.1-.057,2.461-1.421.5-.291-.063.578L8.9,459.7a.471.471,0,0,0,.747.431L12.4,458.12l.469-.343v3.669l-.078.085L9.9,464.679a.471.471,0,0,0,.7.637l1.756-1.916.513-.559v4a.471.471,0,0,0,.942,0v-4.067l.513.559,1.814,1.979a.471.471,0,0,0,.666.029.472.472,0,0,0,.029-.666l-2.944-3.211-.078-.085v-3.573l.469.343,2.7,1.979a.471.471,0,0,0,.747-.431l-.364-3.348-.063-.578.5.291,2.507,1.448.1.057.035.109,1.309,4.156a.471.471,0,0,0,.9-.283l-.807-2.561-.228-.723.657.379L25.14,460.3a.471.471,0,1,0,.471-.816l-2.81-1.622-.657-.379.74-.164,2.537-.563a.471.471,0,1,0-.2-.92l-4.169.925-.112.025-.1-.057-2.573-1.486-.5-.291.532-.234,3.1-1.366a.471.471,0,0,0,0-.863l-3.056-1.347-.532-.235.5-.291,2.475-1.429.1-.057.112.025,4.253.944a.465.465,0,0,0,.1.011.474.474,0,0,0,.459-.369.471.471,0,0,0-.358-.562L22.83,448.6l-.741-.164.657-.38,2.865-1.654a.471.471,0,1,0-.471-.816l-2.811,1.623-.657.379.228-.723.781-2.478a.471.471,0,1,0-.9-.283L20.5,448.172l-.035.109-.1.057L17.8,449.821l-.5.291.063-.578.369-3.394a.471.471,0,0,0-.468-.522.466.466,0,0,0-.278.091l-2.7,1.979-.469.344V444.5l.078-.085,2.944-3.212a.471.471,0,0,0-.347-.79.467.467,0,0,0-.348.153l-1.814,1.979-.513.559v-4.067a.471.471,0,0,0-.942,0v4l-.513-.559L10.6,440.568a.468.468,0,0,0-.348-.153.471.471,0,0,0-.347.79l2.886,3.148.078.085v3.625l-.469-.343-2.747-2.011a.467.467,0,0,0-.278-.091.471.471,0,0,0-.469.522l.366,3.367.063.578-.5-.291-2.521-1.456-.1-.057-.035-.109L4.889,444.1a.471.471,0,1,0-.9.283l.781,2.478.228.723-.657-.379-2.811-1.623a.471.471,0,1,0-.471.816l2.865,1.654.657.38-.741.164-2.621.582a.471.471,0,0,0-.358.562.474.474,0,0,0,.459.369.465.465,0,0,0,.1-.011l4.253-.944.112-.025.1.057L8.345,450.6l.5.291-.532.235-3.081,1.358a.471.471,0,0,0,0,.863l3.124,1.377.532.234-.5.291-2.554,1.475-.1.057-.112-.025-4.169-.925a.485.485,0,0,0-.1-.011.474.474,0,0,0-.46.369.471.471,0,0,0,.358.562l2.537.563.74.164-.657.379-2.81,1.622a.469.469,0,0,0-.22.286m15.908-5.4-.13-.075-1.9-1.1-.443-.255.443-.256,1.941-1.121.13-.075.137.061,2.492,1.1.613.27-.613.27-2.535,1.118Zm-2.942-.61.443.255,1.909,1.1.13.075.016.149.3,2.735.072.665-.54-.4-2.206-1.615-.121-.089v-2.883Zm0-4.559.121-.088,2.206-1.615.54-.4-.072.665-.3,2.782-.016.149-.129.075-1.9,1.1-.443.256V449.2Zm-.942,2.927-.443-.256-1.95-1.126-.13-.075-.016-.149-.3-2.755-.072-.665.54.4,2.25,1.647.121.088v2.895Zm-2.911,6.613.072-.665.294-2.708.016-.149.13-.075,1.955-1.129.443-.255v2.85l-.121.089-2.25,1.647ZM7.207,453.19l-.612-.27.612-.27,2.517-1.11.137-.061.13.075,1.96,1.132.443.256-.443.255L10.033,454.3l-.13.075-.137-.061Z" transform="translate(-0.489 -260.313)" fill="#432fb2"/>
    <path id="Path_2809" data-name="Path 2809" d="M103.033,390.874a.256.256,0,0,0,.375.288l1.555-.9.356-.206-.124.393-.438,1.389a.256.256,0,0,0,.167.321.249.249,0,0,0,.077.012.254.254,0,0,0,.244-.179l.71-2.255.019-.059.054-.031,1.335-.771.274-.158-.034.314-.2,1.8a.256.256,0,0,0,.405.234l1.49-1.091.255-.187v1.991l-.042.046-1.566,1.708a.256.256,0,0,0,.189.428.253.253,0,0,0,.189-.083l.953-1.039.278-.3v2.172a.256.256,0,1,0,.511,0v-2.207l.278.3.984,1.074a.252.252,0,0,0,.189.083.255.255,0,0,0,.188-.428l-1.6-1.742-.042-.046V389.81l.254.186,1.467,1.074a.256.256,0,0,0,.279.015.257.257,0,0,0,.126-.249l-.2-1.816-.034-.314.273.158,1.36.786.054.031.019.059.71,2.255a.254.254,0,0,0,.244.179.252.252,0,0,0,.077-.012.256.256,0,0,0,.167-.321l-.438-1.389-.124-.393.356.206,1.555.9a.256.256,0,1,0,.256-.443l-1.525-.88-.356-.206.4-.089,1.377-.306a.252.252,0,0,0,.16-.112.255.255,0,0,0-.215-.393.266.266,0,0,0-.056.006l-2.262.5-.061.013-.054-.031-1.4-.806-.274-.158.289-.128,1.681-.741a.256.256,0,0,0,0-.468l-1.658-.731-.289-.127.273-.158,1.342-.775.054-.031.061.013,2.307.512a.261.261,0,0,0,.056.006.256.256,0,0,0,.215-.393.253.253,0,0,0-.16-.112l-1.422-.316-.4-.089.356-.206,1.555-.9a.255.255,0,0,0,.094-.349.255.255,0,0,0-.35-.093l-1.525.88-.356.206.124-.393.424-1.345a.256.256,0,0,0-.167-.321.264.264,0,0,0-.077-.012.255.255,0,0,0-.244.179l-.7,2.21-.019.059-.054.031-1.393.8-.273.158.034-.314.2-1.842a.255.255,0,0,0-.254-.283.252.252,0,0,0-.151.05l-1.467,1.073-.254.187v-1.915l.042-.046,1.6-1.742a.255.255,0,0,0-.188-.428.252.252,0,0,0-.189.083l-.984,1.073-.278.3v-2.207a.256.256,0,1,0-.511,0V381.8l-.278-.3-.953-1.039a.256.256,0,0,0-.361-.016.256.256,0,0,0-.016.361l1.566,1.708.042.046v1.967l-.255-.186-1.49-1.091a.253.253,0,0,0-.151-.05.255.255,0,0,0-.254.283l.2,1.827.034.314-.273-.158L106,384.672l-.054-.031-.019-.059-.7-2.21a.255.255,0,0,0-.244-.179.262.262,0,0,0-.077.012.256.256,0,0,0-.167.321l.424,1.345.124.393-.356-.206-1.525-.88a.256.256,0,1,0-.256.443l1.555.9.356.206-.4.089-1.422.316a.256.256,0,0,0-.194.3.255.255,0,0,0,.3.194l2.308-.512.061-.013.054.031,1.332.769.274.158-.289.128-1.671.737a.255.255,0,0,0,0,.468l1.695.747.289.127-.273.158-1.386.8-.054.031-.061-.013-2.262-.5a.256.256,0,0,0-.3.194.256.256,0,0,0,.194.3l1.376.306.4.089-.356.206-1.525.88a.256.256,0,0,0-.119.155m8.631-2.931-.07-.041-1.03-.595-.24-.139.24-.139,1.053-.608.07-.041.074.033,1.352.6.332.147-.332.146-1.375.606Zm-1.6-.331.24.139,1.035.6.07.041.009.081.161,1.484.039.361-.293-.215-1.2-.876-.065-.048v-1.564Zm0-2.473.065-.048,1.2-.876.293-.215-.039.361-.164,1.51-.009.08-.07.041-1.033.6-.24.139v-1.588Zm-.511,1.588-.24-.139-1.058-.611-.07-.041-.009-.081-.163-1.495-.039-.361.293.215,1.221.894.065.048v1.57Zm-1.579,3.589.039-.361.16-1.469.009-.081.07-.041,1.061-.613.24-.139v1.547l-.065.048-1.221.893Zm-1.491-3.011-.332-.146.332-.147,1.366-.6.074-.033.07.041,1.064.614.24.139-.24.139-1.04.6-.071.041-.074-.033Z" transform="translate(-61.15 -225.176)" fill="#432fb2"/>
    <path id="Path_2810" data-name="Path 2810" d="M770.118,332.093l-1.525-.88-.356-.206.4-.089,1.377-.306a.252.252,0,0,0,.16-.112.255.255,0,0,0-.215-.393.266.266,0,0,0-.056.006l-2.262.5-.06.013-.054-.031-1.385-.8-.273-.158.289-.127,1.695-.747a.256.256,0,0,0,0-.468l-1.672-.737-.289-.128.273-.158,1.332-.769.054-.031.061.013,2.307.512a.265.265,0,0,0,.056.006.255.255,0,0,0,.215-.393.253.253,0,0,0-.16-.112l-1.422-.316-.4-.089.357-.206,1.555-.9a.255.255,0,0,0,.094-.349.255.255,0,0,0-.349-.093l-1.525.88-.357.206.124-.393.424-1.345a.256.256,0,0,0-.167-.321.262.262,0,0,0-.077-.012.255.255,0,0,0-.244.179l-.7,2.21-.019.059-.054.031-1.368.79-.273.158.034-.314.2-1.827a.255.255,0,0,0-.405-.234l-1.49,1.091-.254.186v-1.967l.042-.046,1.566-1.708a.256.256,0,0,0-.188-.428.252.252,0,0,0-.189.083l-.953,1.039-.278.3V321a.256.256,0,1,0-.511,0v2.207l-.278-.3-.984-1.073a.252.252,0,0,0-.188-.083.256.256,0,0,0-.189.428l1.6,1.742.042.046v1.915l-.255-.187-1.466-1.073a.253.253,0,0,0-.151-.05.256.256,0,0,0-.254.283l.2,1.842.034.314-.273-.158-1.393-.8-.054-.031-.019-.059-.7-2.21a.255.255,0,0,0-.244-.179.262.262,0,0,0-.077.012.256.256,0,0,0-.167.321l.424,1.345.124.393-.356-.206-1.525-.88a.256.256,0,1,0-.256.443l1.555.9.357.206-.4.089-1.422.316a.256.256,0,0,0-.194.3.257.257,0,0,0,.249.2A.26.26,0,0,0,757,327l2.308-.512.061-.013.054.031,1.343.775.273.158-.289.127-1.658.731a.256.256,0,0,0,0,.468l1.681.741.289.128-.274.158-1.4.806-.054.031-.061-.013-2.262-.5a.262.262,0,0,0-.056-.006.256.256,0,0,0-.055.505l1.376.306.4.089-.356.206-1.525.88a.256.256,0,0,0,.256.443l1.555-.9.357-.206-.124.393-.438,1.389a.256.256,0,0,0,.167.321.249.249,0,0,0,.077.012.254.254,0,0,0,.244-.179l.71-2.255.019-.059.054-.031,1.361-.786.273-.158-.034.314-.2,1.816a.256.256,0,0,0,.405.234l1.466-1.074.255-.186v1.939l-.042.046-1.6,1.742a.256.256,0,0,0,.189.428.252.252,0,0,0,.188-.083l.984-1.074.278-.3v2.207a.256.256,0,1,0,.511,0v-2.172l.278.3.953,1.039a.252.252,0,0,0,.189.083.255.255,0,0,0,.188-.428l-1.566-1.708-.042-.046v-1.991l.254.187,1.49,1.091a.256.256,0,0,0,.405-.234l-.2-1.8-.034-.314.273.158,1.335.771.054.031.019.059.71,2.255a.254.254,0,0,0,.244.179.251.251,0,0,0,.077-.012.256.256,0,0,0,.167-.321l-.438-1.389-.124-.393.356.206,1.555.9a.256.256,0,0,0,.349-.094.255.255,0,0,0-.094-.349m-8.586-2.809-1.376-.606-.332-.146.332-.147,1.353-.6.074-.033.07.041,1.053.608.24.139-.24.139-1.03.595-.07.041Zm1.671-.021v1.287l-.066.048-1.2.876-.293.215.039-.361.161-1.484.009-.081.07-.041,1.036-.6.24-.139Zm0-2.67V328.1l-.24-.139-1.033-.6-.07-.041-.009-.081-.164-1.509-.039-.361.293.215,1.2.876.066.048Zm.511,1.229V326.53l.065-.048,1.221-.894.293-.215-.039.361-.162,1.495-.009.08-.07.041-1.058.611-.24.139ZM765,331.474l-1.221-.893-.065-.048v-1.547l.24.139,1.061.612.07.041.008.081.16,1.469.039.361Zm.395-2.184-.074.033-.07-.041-1.04-.6-.24-.139.24-.139,1.064-.614.07-.041.074.033,1.366.6.332.147-.332.146Z" transform="translate(-449.123 -190.378)" fill="#432fb2"/>
    <path id="Path_2811" data-name="Path 2811" d="M75.589,129.4h35.126a.321.321,0,0,1,.337.3h0v26.851l-5.668-4.756H75.589a.32.32,0,0,1-.337-.3h0V129.705a.321.321,0,0,1,.336-.3Z" transform="translate(-44.666 -76.807)" fill="#fff"/>
    <path id="Path_2812" data-name="Path 2812" d="M110.7,156.445a.242.242,0,0,1-.155-.056l-5.6-4.7H75.237a.562.562,0,0,1-.578-.543V129.353a.562.562,0,0,1,.577-.544h35.126a.562.562,0,0,1,.578.544V156.2a.242.242,0,0,1-.241.241M75.237,129.291c-.055,0-.1.033-.1.062v21.793c0,.029.041.062.1.062h29.8a.243.243,0,0,1,.155.056l5.271,4.423V129.353c0-.029-.041-.062-.1-.062Z" transform="translate(-44.314 -76.455)" fill="#fff"/>
    <path id="Path_2813" data-name="Path 2813" d="M79.509,132.593h35.126a.321.321,0,0,1,.338.3h0v26.852l-5.668-4.755H79.51a.321.321,0,0,1-.337-.3V132.9a.321.321,0,0,1,.336-.3" transform="translate(-46.993 -78.701)" fill="#fcd23d"/>
    <path id="Path_2814" data-name="Path 2814" d="M99.652,146.856H91.217a.61.61,0,1,1,0-1.219h8.435a.61.61,0,0,1,0,1.219" transform="translate(-53.78 -86.443)" fill="#fff"/>
    <path id="Path_2815" data-name="Path 2815" d="M111.22,155.725h-20a.61.61,0,1,1,0-1.219h20a.61.61,0,1,1,0,1.219" transform="translate(-53.78 -91.707)" fill="#fff"/>
    <path id="Path_2816" data-name="Path 2816" d="M108.907,164.208H91.218a.61.61,0,1,1,0-1.219h17.689a.61.61,0,1,1,0,1.219" transform="translate(-53.781 -96.742)" fill="#fff"/>
    <path id="Path_2817" data-name="Path 2817" d="M113.535,173.462H91.218a.61.61,0,1,1,0-1.219h22.317a.61.61,0,0,1,0,1.219" transform="translate(-53.781 -102.235)" fill="#fff"/>
    <path id="Path_2818" data-name="Path 2818" d="M116.53,287.591a1.148,1.148,0,0,1-.871.917l-17.02,4a1.149,1.149,0,0,1-1.18-1.8l3.532-4.74,8.749.454-8.366-2.6L99.7,278.139a1.149,1.149,0,0,1,1.731-1.284l14.624,9.613a1.1,1.1,0,0,1,.476,1.123" transform="translate(-57.712 -164.216)" fill="#af006e"/>
    <path id="Path_2819" data-name="Path 2819" d="M35.75,197.4a.413.413,0,0,1-.161-.033l-.747-.326a.406.406,0,1,1,.326-.745l.743.324a.407.407,0,0,1-.162.78m-2.969-1.322a.413.413,0,0,1-.169-.037l-.74-.341a.406.406,0,1,1,.342-.737l.736.339a.406.406,0,0,1-.17.776m-2.941-1.387a.408.408,0,0,1-.177-.041q-.369-.179-.732-.359a.406.406,0,1,1,.36-.729l.728.356a.407.407,0,0,1-.178.772m-2.9-1.46a.407.407,0,0,1-.187-.046l-.722-.378a.407.407,0,0,1,.379-.719q.355.188.718.376a.407.407,0,0,1-.188.767m-2.863-1.539a.4.4,0,0,1-.2-.051c-.239-.133-.476-.267-.711-.4a.406.406,0,1,1,.4-.707l.706.4a.406.406,0,0,1-.2.762m-2.813-1.628a.407.407,0,0,1-.209-.058q-.352-.212-.7-.424a.406.406,0,1,1,.426-.692q.342.21.691.419a.407.407,0,0,1-.21.755m-2.753-1.727a.4.4,0,0,1-.222-.067c-.23-.15-.456-.3-.681-.45a.407.407,0,0,1,.452-.676q.333.223.674.447a.406.406,0,0,1-.223.746m-2.68-1.838a.405.405,0,0,1-.237-.076q-.335-.241-.661-.482a.407.407,0,0,1,.483-.654q.322.238.653.476a.406.406,0,0,1-.238.736m-2.59-1.962a.4.4,0,0,1-.253-.089q-.323-.257-.636-.516a.406.406,0,0,1,.517-.627q.308.254.626.508a.406.406,0,0,1-.254.724m-2.477-2.1a.408.408,0,0,1-.273-.1q-.307-.278-.6-.554a.407.407,0,1,1,.555-.595q.292.273.594.545a.406.406,0,0,1-.273.708m-2.334-2.26a.405.405,0,0,1-.293-.125q-.287-.3-.563-.6a.407.407,0,1,1,.6-.551q.27.293.552.586a.407.407,0,0,1-.293.688M6.276,177.74a.4.4,0,0,1-.316-.151q-.262-.322-.51-.645a.406.406,0,1,1,.644-.5q.242.315.5.63a.406.406,0,0,1-.315.662M4.36,175.116a.406.406,0,0,1-.341-.184q-.227-.348-.441-.7a.406.406,0,0,1,.692-.426q.209.338.429.677a.406.406,0,0,1-.34.628M2.743,172.3a.406.406,0,0,1-.364-.226q-.186-.374-.355-.746a.407.407,0,1,1,.741-.336q.163.36.342.721a.407.407,0,0,1-.364.587m-1.242-3a.406.406,0,0,1-.385-.278q-.132-.4-.248-.789a.407.407,0,0,1,.78-.229q.111.379.238.761a.407.407,0,0,1-.385.535m-.8-3.148a.407.407,0,0,1-.4-.337Q.235,165.406.181,165a.406.406,0,0,1,.806-.106q.052.393.12.788a.407.407,0,0,1-.4.476m-.3-3.232a.407.407,0,0,1-.406-.4l0-.272q0-.279.007-.556a.406.406,0,0,1,.406-.4H.424a.407.407,0,0,1,.4.417q-.007.266-.007.535l0,.261a.407.407,0,0,1-.4.412Zm.21-3.238a.4.4,0,0,1-.058,0,.407.407,0,0,1-.345-.46q.058-.41.131-.817a.4.4,0,0,1,.472-.328.407.407,0,0,1,.328.472c-.047.261-.089.523-.126.787a.407.407,0,0,1-.4.35m.682-3.176a.4.4,0,0,1-.113-.016.406.406,0,0,1-.278-.5q.114-.4.242-.792a.407.407,0,1,1,.773.251q-.123.38-.234.766a.406.406,0,0,1-.39.294m1.095-3.062a.4.4,0,0,1-.16-.033.407.407,0,0,1-.214-.533q.163-.38.334-.754a.406.406,0,0,1,.739.338q-.167.365-.326.735a.406.406,0,0,1-.374.247m1.437-2.92a.406.406,0,0,1-.354-.6q.2-.36.409-.713a.407.407,0,0,1,.7.412q-.2.346-.4.7a.405.405,0,0,1-.355.208m1.714-2.765a.407.407,0,0,1-.335-.636q.232-.34.469-.674a.407.407,0,0,1,.663.471q-.232.327-.461.661a.406.406,0,0,1-.336.178m1.938-2.614a.4.4,0,0,1-.254-.089.406.406,0,0,1-.063-.571q.257-.322.519-.636a.406.406,0,1,1,.626.519q-.256.309-.51.625a.4.4,0,0,1-.317.152m2.12-2.47a.407.407,0,0,1-.3-.681q.279-.3.558-.6a.407.407,0,0,1,.591.558q-.275.291-.55.591a.406.406,0,0,1-.3.132m2.271-2.332a.407.407,0,0,1-.282-.7q.3-.288.592-.566a.406.406,0,1,1,.558.591q-.29.275-.584.559a.406.406,0,0,1-.283.115m2.4-2.2a.407.407,0,0,1-.267-.713q.316-.274.622-.534a.406.406,0,0,1,.526.62q-.3.257-.614.527a.407.407,0,0,1-.267.1m2.514-2.072a.406.406,0,0,1-.25-.727q.339-.265.651-.5a.406.406,0,0,1,.49.649q-.307.232-.641.493a.4.4,0,0,1-.25.086m2.629-1.931a.406.406,0,0,1-.23-.742c.388-.265.6-.4.6-.4a.406.406,0,1,1,.435.686s-.211.134-.581.387a.4.4,0,0,1-.229.071" transform="translate(0 -78.902)" fill="#af006e"/>
    <path id="Path_2820" data-name="Path 2820" d="M30.721,74.543l11.694-7.532,0-1.448A1.741,1.741,0,0,0,40.7,63.8h-.035l-18.716-.023A1.743,1.743,0,0,0,20.183,65.5v.034l0,1.551Z" transform="translate(-11.978 -37.855)" fill="#432fb2"/>
    <path id="Path_2821" data-name="Path 2821" d="M30.442,84.608,19.9,77.148l-.015,10.031a1.743,1.743,0,0,0,1.724,1.76h.032l18.719.025a1.745,1.745,0,0,0,1.761-1.728v-.028l.013-10.133Z" transform="translate(-11.805 -45.748)" fill="#432fb2"/>
    <path id="Path_2822" data-name="Path 2822" d="M87.23,66.96h49.957a1.019,1.019,0,0,1,1.019,1.019h0A1.019,1.019,0,0,1,137.187,69H87.23a1.019,1.019,0,0,1-1.019-1.019h0A1.019,1.019,0,0,1,87.23,66.96" transform="translate(-51.171 -39.744)" fill="#432fb2"/>
    <path id="Path_2823" data-name="Path 2823" d="M87.23,82.009h49.957a1.019,1.019,0,0,1,1.019,1.019h0a1.019,1.019,0,0,1-1.019,1.019H87.23a1.019,1.019,0,0,1-1.019-1.019h0a1.019,1.019,0,0,1,1.019-1.019" transform="translate(-51.171 -48.677)" fill="#432fb2"/>
    <path id="Path_2824" data-name="Path 2824" d="M87.23,97.059h26.508a1.019,1.019,0,0,1,1.019,1.019h0a1.019,1.019,0,0,1-1.019,1.019H87.23a1.019,1.019,0,0,1-1.019-1.019h0a1.019,1.019,0,0,1,1.019-1.019" transform="translate(-51.171 -57.61)" fill="#432fb2"/>
  </g>
</svg>
